<?xml version="1.0" encoding="utf-8"?>
<!-- Generator: Adobe Illustrator 25.4.1, SVG Export Plug-In . SVG Version: 6.00 Build 0)  -->
<svg version="1.1" id="Layer_1" xmlns="http://www.w3.org/2000/svg" xmlns:xlink="http://www.w3.org/1999/xlink" x="0px" y="0px"
	 viewBox="0 0 644.4 251.5" style="enable-background:new 0 0 644.4 251.5;" xml:space="preserve">
<style type="text/css">
	.st0{fill:#FFFFFF;stroke:#000000;stroke-miterlimit:10;}
	.st1{fill:none;stroke:#000000;stroke-miterlimit:10;}
	.st2{font-family:'SourceSansPro-Regular';}
	.st3{font-size:24px;}
	.st4{font-size:12px;}
</style>
<g>
	<rect x="21.6" y="37.5" class="st0" width="247.4" height="198.6"/>
	<line class="st1" x1="21.6" y1="161.7" x2="269" y2="161.7"/>
	<line class="st1" x1="21.6" y1="136.8" x2="269" y2="136.8"/>
	<line class="st1" x1="21.6" y1="112" x2="269" y2="112"/>
	<line class="st1" x1="21.6" y1="87.2" x2="269" y2="87.2"/>
	<line class="st1" x1="21.6" y1="62.4" x2="269" y2="62.4"/>
	<line class="st1" x1="207.1" y1="38" x2="207.1" y2="236.1"/>
	<line class="st1" x1="145.3" y1="38" x2="145.3" y2="236.1"/>
	<line class="st1" x1="63.7" y1="37.7" x2="63.7" y2="235.8"/>
</g>
<g>
	<rect x="392.7" y="37.5" class="st0" width="230.1" height="173.8"/>
	<line class="st1" x1="392.7" y1="161.7" x2="623.1" y2="161.7"/>
	<line class="st1" x1="392.7" y1="136.8" x2="623.1" y2="136.8"/>
	<line class="st1" x1="392.7" y1="112" x2="623.1" y2="112"/>
	<line class="st1" x1="392.7" y1="87.2" x2="623.1" y2="87.2"/>
	<line class="st1" x1="392.7" y1="62.4" x2="623.1" y2="62.4"/>
	<line class="st1" x1="559.3" y1="37.5" x2="559.3" y2="211.3"/>
	<line class="st1" x1="454.5" y1="37.5" x2="454.5" y2="211.3"/>
</g>
<text transform="matrix(1 0 0 1 109.7716 30.2685)" class="st2 st3">articles</text>
<text transform="matrix(1 0 0 1 468.3128 30.2682)" class="st2 st3">journals</text>
<text transform="matrix(1 0 0 1 36.9809 53.6952)" class="st2 st4">ID</text>
<text transform="matrix(1 0 0 1 91.3423 53.6952)" class="st2 st4">Title</text>
<text transform="matrix(1 0 0 1 165.3661 53.6952)" class="st2 st4">Year</text>
<text transform="matrix(1 0 0 1 212.6958 53.6952)" class="st2 st4">Journal ID</text>
<text transform="matrix(1 0 0 1 39.3329 78.5819)" class="st2 st4">1</text>
<text transform="matrix(1 0 0 1 39.3329 103.351)" class="st2 st4">2</text>
<text transform="matrix(1 0 0 1 39.3329 128.1201)" class="st2 st4">3</text>
<text transform="matrix(1 0 0 1 39.3329 152.8894)" class="st2 st4">4</text>
<text transform="matrix(1 0 0 1 39.3329 177.6584)" class="st2 st4">5</text>
<text transform="matrix(1 0 0 1 75.5587 78.5819)" class="st2 st4">Aflatoxin...</text>
<text transform="matrix(1 0 0 1 75.5589 103.351)" class="st2 st4">Metagen...</text>
<text transform="matrix(1 0 0 1 75.5587 128.1201)" class="st2 st4">Synthesis...</text>
<text transform="matrix(1 0 0 1 75.5589 152.8894)" class="st2 st4">Perform...</text>
<text transform="matrix(1 0 0 1 75.5589 177.6584)" class="st2 st4">Dihydro...</text>
<text transform="matrix(1 0 0 1 459.244 78.5819)" class="st2 st4">Agriculture</text>
<text transform="matrix(1 0 0 1 459.2442 103.351)" class="st2 st4">Int’l Jnl of Mol Sci...</text>
<text transform="matrix(1 0 0 1 459.244 128.1201)" class="st2 st4">Inorganics</text>
<text transform="matrix(1 0 0 1 459.2442 152.8894)" class="st2 st4">Hydrology</text>
<text transform="matrix(1 0 0 1 459.2442 177.6584)" class="st2 st4">Molecules</text>
<text transform="matrix(1 0 0 1 564.7886 78.5819)" class="st2 st4">2077-0472</text>
<text transform="matrix(1 0 0 1 564.7884 103.351)" class="st2 st4">1422-0067</text>
<text transform="matrix(1 0 0 1 564.7886 128.1201)" class="st2 st4">2304-6740</text>
<text transform="matrix(1 0 0 1 564.7884 152.8894)" class="st2 st4">2306-5338</text>
<text transform="matrix(1 0 0 1 564.7884 177.6584)" class="st2 st4">1420-3049</text>
<text transform="matrix(1 0 0 1 163.5081 78.5819)" class="st2 st4">2015</text>
<text transform="matrix(1 0 0 1 163.5081 103.351)" class="st2 st4">2015</text>
<text transform="matrix(1 0 0 1 163.5081 128.1201)" class="st2 st4">2015</text>
<text transform="matrix(1 0 0 1 163.5081 152.8894)" class="st2 st4">2015</text>
<text transform="matrix(1 0 0 1 163.5081 177.6584)" class="st2 st4">2015</text>
<text transform="matrix(1 0 0 1 233.7821 78.5819)" class="st2 st4">1</text>
<text transform="matrix(1 0 0 1 230.7042 103.351)" class="st2 st4">22</text>
<text transform="matrix(1 0 0 1 230.7042 128.1201)" class="st2 st4">20</text>
<text transform="matrix(1 0 0 1 230.7042 152.8894)" class="st2 st4">19</text>
<text transform="matrix(1 0 0 1 230.7042 177.6584)" class="st2 st4">35</text>
<text transform="matrix(1 0 0 1 39.3329 202.5097)" class="st2 st4">6</text>
<text transform="matrix(1 0 0 1 75.5589 202.5097)" class="st2 st4">Ionic Liq...</text>
<text transform="matrix(1 0 0 1 163.5081 202.5097)" class="st2 st4">2015</text>
<text transform="matrix(1 0 0 1 230.7042 202.5097)" class="st2 st4">10</text>
<text transform="matrix(1 0 0 1 39.3329 227.3608)" class="st2 st4">7</text>
<text transform="matrix(1 0 0 1 75.5589 227.3608)" class="st2 st4">Character...</text>
<text transform="matrix(1 0 0 1 163.5081 227.3608)" class="st2 st4">2015</text>
<text transform="matrix(1 0 0 1 230.7042 227.3608)" class="st2 st4">22</text>
<text transform="matrix(1 0 0 1 420.5356 78.5819)" class="st2 st4">1</text>
<text transform="matrix(1 0 0 1 417.4577 103.351)" class="st2 st4">22</text>
<text transform="matrix(1 0 0 1 417.4577 128.1201)" class="st2 st4">20</text>
<text transform="matrix(1 0 0 1 417.4577 152.8894)" class="st2 st4">19</text>
<text transform="matrix(1 0 0 1 417.4577 177.6584)" class="st2 st4">35</text>
<text transform="matrix(1 0 0 1 459.2442 202.6416)" class="st2 st4">Catalysts</text>
<text transform="matrix(1 0 0 1 564.7884 202.6416)" class="st2 st4">2073-4344</text>
<text transform="matrix(1 0 0 1 417.4577 202.6416)" class="st2 st4">10</text>
<text transform="matrix(1 0 0 1 418.0849 53.815)" class="st2 st4">ID</text>
<text transform="matrix(1 0 0 1 494.4579 53.815)" class="st2 st4">Title</text>
<text transform="matrix(1 0 0 1 579.956 53.815)" class="st2 st4">ISSN</text>
<g>
	<g>
		<line class="st1" x1="291.2" y1="74.9" x2="370.9" y2="74.9"/>
		<g>
			<polygon points="292.7,79.9 284,74.9 292.7,69.9 			"/>
		</g>
		<g>
			<polygon points="369.5,79.9 378.1,74.9 369.5,69.9 			"/>
		</g>
	</g>
</g>
<g>
	<g>
		<line class="st1" x1="291.2" y1="99.7" x2="370.9" y2="99.7"/>
		<g>
			<polygon points="292.7,104.7 284,99.7 292.7,94.7 			"/>
		</g>
		<g>
			<polygon points="369.5,104.7 378.1,99.7 369.5,94.7 			"/>
		</g>
	</g>
</g>
<g>
	<g>
		<line class="st1" x1="288.4" y1="218.8" x2="373.7" y2="109.1"/>
		<g>
			<polygon points="293.3,220.8 284,224.5 285.4,214.6 			"/>
		</g>
		<g>
			<polygon points="376.8,113.3 378.1,103.4 368.9,107.2 			"/>
		</g>
	</g>
</g>
<g>
	<g>
		<line class="st1" x1="291.2" y1="124.5" x2="370.9" y2="124.5"/>
		<g>
			<polygon points="292.7,129.5 284,124.5 292.7,119.5 			"/>
		</g>
		<g>
			<polygon points="369.5,129.5 378.1,124.5 369.5,119.5 			"/>
		</g>
	</g>
</g>
<g>
	<g>
		<line class="st1" x1="291.2" y1="149.3" x2="370.9" y2="149.3"/>
		<g>
			<polygon points="292.7,154.3 284,149.3 292.7,144.4 			"/>
		</g>
		<g>
			<polygon points="369.5,154.3 378.1,149.3 369.5,144.4 			"/>
		</g>
	</g>
</g>
<g>
	<g>
		<line class="st1" x1="291.2" y1="174.2" x2="370.9" y2="174.2"/>
		<g>
			<polygon points="292.7,179.1 284,174.2 292.7,169.2 			"/>
		</g>
		<g>
			<polygon points="369.5,179.1 378.1,174.2 369.5,169.2 			"/>
		</g>
	</g>
</g>
<g>
	<g>
		<line class="st1" x1="291.2" y1="199" x2="370.9" y2="199"/>
		<g>
			<polygon points="292.7,204 284,199 292.7,194 			"/>
		</g>
		<g>
			<polygon points="369.5,204 378.1,199 369.5,194 			"/>
		</g>
	</g>
</g>
<line class="st1" x1="21.6" y1="211.3" x2="269" y2="211.3"/>
<line class="st1" x1="21.6" y1="186.5" x2="269" y2="186.5"/>
<line class="st1" x1="392.7" y1="186.5" x2="622.8" y2="186.5"/>
</svg>
