<?xml version="1.0" encoding="utf-8"?>
<!-- Generator: Adobe Illustrator 25.4.1, SVG Export Plug-In . SVG Version: 6.00 Build 0)  -->
<svg version="1.1" id="Layer_1" xmlns="http://www.w3.org/2000/svg" xmlns:xlink="http://www.w3.org/1999/xlink" x="0px" y="0px"
	 viewBox="0 0 693.31 407" style="enable-background:new 0 0 693.31 407;" xml:space="preserve">
<style type="text/css">
	.st0{fill:#FFFFFF;stroke:#000000;stroke-miterlimit:10;}
	.st1{font-family:'SourceSansPro-Regular';}
	.st2{font-size:29.8852px;}
	.st3{fill:none;stroke:#000000;stroke-width:1.5;stroke-miterlimit:10;}
	.st4{font-size:25.1198px;}
</style>
<g>
	<rect x="0.5" y="46.3" class="st0" width="247.39" height="148.95"/>
	<line class="st0" x1="0.5" y1="170.43" x2="247.89" y2="170.43"/>
	<line class="st0" x1="0.5" y1="145.6" x2="247.89" y2="145.6"/>
	<line class="st0" x1="0.5" y1="120.78" x2="247.89" y2="120.78"/>
	<line class="st0" x1="0.5" y1="95.95" x2="247.89" y2="95.95"/>
	<line class="st0" x1="0.5" y1="71.13" x2="247.89" y2="71.13"/>
	<line class="st0" x1="186.04" y1="46.3" x2="186.04" y2="195.25"/>
	<line class="st0" x1="124.19" y1="46.3" x2="124.19" y2="195.25"/>
	<line class="st0" x1="62.35" y1="46.3" x2="62.35" y2="195.25"/>
</g>
<g>
	<rect x="35.6" y="81.4" class="st0" width="247.39" height="148.95"/>
	<line class="st0" x1="35.6" y1="205.52" x2="282.99" y2="205.52"/>
	<line class="st0" x1="35.6" y1="180.7" x2="282.99" y2="180.7"/>
	<line class="st0" x1="35.6" y1="155.87" x2="282.99" y2="155.87"/>
	<line class="st0" x1="35.6" y1="131.05" x2="282.99" y2="131.05"/>
	<line class="st0" x1="35.6" y1="106.23" x2="282.99" y2="106.23"/>
	<line class="st0" x1="221.14" y1="81.4" x2="221.14" y2="230.35"/>
	<line class="st0" x1="159.29" y1="81.4" x2="159.29" y2="230.35"/>
	<line class="st0" x1="97.44" y1="81.4" x2="97.44" y2="230.35"/>
</g>
<g>
	<rect x="70.69" y="116.5" class="st0" width="247.39" height="148.95"/>
	<line class="st0" x1="70.69" y1="240.62" x2="318.08" y2="240.62"/>
	<line class="st0" x1="70.69" y1="215.8" x2="318.08" y2="215.8"/>
	<line class="st0" x1="70.69" y1="190.97" x2="318.08" y2="190.97"/>
	<line class="st0" x1="70.69" y1="166.15" x2="318.08" y2="166.15"/>
	<line class="st0" x1="70.69" y1="141.32" x2="318.08" y2="141.32"/>
	<line class="st0" x1="256.24" y1="116.5" x2="256.24" y2="265.44"/>
	<line class="st0" x1="194.39" y1="116.5" x2="194.39" y2="265.44"/>
	<line class="st0" x1="132.54" y1="116.5" x2="132.54" y2="265.44"/>
</g>
<g>
	<rect x="445.42" y="257.56" class="st0" width="247.39" height="148.95"/>
	<line class="st0" x1="445.42" y1="381.68" x2="692.81" y2="381.68"/>
	<line class="st0" x1="445.42" y1="356.85" x2="692.81" y2="356.85"/>
	<line class="st0" x1="445.42" y1="332.03" x2="692.81" y2="332.03"/>
	<line class="st0" x1="445.42" y1="307.2" x2="692.81" y2="307.2"/>
	<line class="st0" x1="445.42" y1="282.38" x2="692.81" y2="282.38"/>
	<line class="st0" x1="630.96" y1="257.56" x2="630.96" y2="406.5"/>
	<line class="st0" x1="569.11" y1="257.56" x2="569.11" y2="406.5"/>
	<line class="st0" x1="507.27" y1="257.56" x2="507.27" y2="406.5"/>
</g>
<text transform="matrix(1 0 0 1 29.6616 24.8048)" class="st1 st2">multiple tables</text>
<g>
	<g>
		<line class="st3" x1="343.51" y1="196.22" x2="412.59" y2="237.52"/>
		<g>
			<polygon points="406.87,242.81 421.83,243.04 414.55,229.97 			"/>
		</g>
	</g>
</g>
<text transform="matrix(1 0 0 1 488.3723 240.62)" class="st1 st4">fields (columns)</text>
<text transform="matrix(1 0 0 1 345.4582 320.2385)"><tspan x="0" y="0" class="st1 st4">records </tspan><tspan x="13.31" y="30.14" class="st1 st4">(rows)</tspan></text>
</svg>
